              <svg xmlns="http://www.w3.org/2000/svg" width="392" height="125">
                <style>
                  .st0 {
                    fill: #231f20;
                  }
                  .st1 {
                    fill: #fff;
                  }
                  .st3 {
                    fill: #efc7af;
                  }
                  .st4 {
                    fill: #204788;
                  }
                  .st5 {
                    fill: #ffc132;
                  }
                </style>
                <path
                  class="st0"
                  d="M90.3 94.1c-2.1-15.5-11.5-32.5-28.2-37l-1.4-4.3c.7-.9 1.4-1.8 2.1-2.8 2.6-3.8 4.4-8.3 5.6-13.1.3.1.5.2.8.2h.6c1.1 0 2.2-.5 3.1-1.3 1-.9 1.6-2.2 1.8-3.7.4-3.1-1.4-5.9-4-6.3-.4-.1-.7-.1-1.1 0 0-.5 0-1.1-.1-1.6.5.3.8.4.9.5.4.2.8.2 1.2-.1.4-.2.6-.6.6-1.1 0-9-4.9-16.8-12.2-20.9-.1 0-.1-.1-.2-.1-3.4-1.9-7.4-3-11.6-3-13.2 0-24 10.8-24 24 0 .6.5 1.2 1.1 1.3 0 0 .6.1 1.5.1v.9h-1.1c-2.6.4-4.4 3.2-4 6.3.2 1.5.9 2.8 1.8 3.7.9.8 2 1.3 3.1 1.3h.6c.3 0 .5-.1.8-.2 1.5 6.4 4.3 11.9 7.7 15.9L34.4 57c-8.7 2.4-16.3 8.3-21 16.4-.1 0-.2-.1-.4-.1-1.6-.6-3.5-1.3-5.5-1.3C3 72 .6 75.9.4 83.6c0 1.3.3 2.3 1 3 .6.6 1.3.9 2.3 1.1h.1c.4.9 1.3 2.1 2.8 2.3.2.8.6 1.6 1.6 2 .3.1.6.3 1 .3-.2.4-.3.8-.4 1.1-1.1 3.1.4 4.4 1.3 4.8.3.2.7.2 1 .2.3 0 .6-.1.9-.2l.5 1c1.1 2.5 1.7 3.7 3.1 3.7.5 0 1-.2 1.5-.5l2.7 6.1.5 2.9s0 .1.1.1l2.2 2.7c.1.1.1.1.2.1h.1l1.6-.7c.1 0 .2-.2.1-.3l-.6-3.4s0-.1-.1-.1l-1.8-2.3-2.8-6.1c.6-.3 1.2-.6 1.4-1.3.3-.9 0-1.8-.8-3.5H67l-.9.8c-.3.2-.4.5-.4.9-.1 1.8-.4 4.2-.9 4.7-.2.2-.6.8-.4 1.6H32.7c-2.2 0-4.2 1.6-4.6 3.6l-2.3 12.2c-.2 1.3.1 2.5.8 3.4.8.9 1.9 1.4 3.1 1.4h37.9c1.3 0 2.4-.5 3.1-1.4.8-.9 1.1-2.2.8-3.4l-.7-3.6c.2.2.4.3.6.5.5.3.9.4 1.2.4.2 0 .4 0 .6-.1 1.1-.3 1.7-1.4 2.3-2.5.2-.3.3-.6.5-.9.3-.5.9-1.3 1.4-2.1.6-.1 2-.3 2.7-.6.4-.2.7-.4 1.1-.8l.6.2c.3.1.6.1.9 0 5.4-1.8 8.6-6.1 8.9-11.8.5-1.1-.2-3.1-1.3-5M48.2 60.4l5.8 6c-1.5 2.9-3.7 6.2-5.8 7.5-2.1-1.3-4.3-4.6-5.8-7.5l5.8-6zm-8.9 5.7L36.4 59l.1-.4v-.1l1.2-3.6c2.5 2.4 5.2 4 7.8 4.7l-6.2 6.5zm11.6-6.5c2.7-.7 5.4-2.3 7.9-4.7l1.3 4-2.9 7.2-6.3-6.5zm19.5-31.3c1.2.2 2.1 1.7 1.8 3.4-.1.9-.5 1.7-1.1 2.2-.5.5-1.1.7-1.6.6-.2 0-.5-.1-.6-.2.3-1.9.6-3.9.7-5.9.2-.1.5-.1.8-.1M67.1 26v.5l-4.2 3.3c-.9-2.7-3.5-4.6-6.5-4.6-2.9 0-5.5 1.9-6.5 4.5h-3.4c-1-2.6-3.5-4.5-6.5-4.5s-5.6 1.9-6.5 4.6l-4.2-3.3v-1.6c6.5-.1 20.2-1.8 27.6-13.1 3.3 5.2 7.1 8.7 9.8 10.6.3 1.2.4 2.4.4 3.6m-6.3 6.1c0 2.4-2 4.4-4.4 4.4-2.4 0-4.4-2-4.4-4.4 0-2.4 2-4.4 4.4-4.4 2.4 0 4.4 2 4.4 4.4m-16.4 0c0 2.4-2 4.4-4.4 4.4-2.4 0-4.4-2-4.4-4.4 0-2.4 2-4.4 4.4-4.4 2.5 0 4.4 2 4.4 4.4M60 5.5c5.3 3.5 8.9 9.1 9.6 15.7-2.6-1.7-7.5-5.5-11.2-12 .7-1.3 1.2-2.7 1.6-3.7M26.8 22.3C27.4 11 36.8 2 48.2 2c3.4 0 6.7.8 9.5 2.2-.4 1.1-1 2.8-1.9 4.4-.1.2-.2.3-.3.5-.1.1-.1.2-.2.3C48.5 21 34.4 22.3 28.5 22.3c-.7.1-1.3.1-1.7 0m.1 12.3c-.6.1-1.1-.1-1.6-.6-.6-.5-1-1.3-1.1-2.2-.2-1.7.6-3.3 1.8-3.4.3 0 .6 0 .8.1.1 2 .3 4 .7 5.9-.1.1-.3.1-.6.2m3.5.9c-.4-1.8-.7-3.7-.9-5.7l3.7 2.9c.3 3.5 3.3 6.3 6.9 6.3 3.8 0 6.9-3.1 6.9-6.8h2.5c0 3.8 3.1 6.8 6.9 6.8 3.6 0 6.5-2.8 6.9-6.3l3.7-2.9c-.2 1.9-.5 3.9-.9 5.7-1 4.8-2.9 9.2-5.4 13-3.7 5.5-8.3 8.8-12.5 8.8-6.9.1-15-9.1-17.8-21.8M11.2 96c-.2-.1-.5-.4 0-1.7.1-.4.3-.9.5-1.3 0-.1.1-.1.1-.2l4.1-10.2c.3-.6-.1-1.4-.7-1.6-.6-.3-1.4.1-1.6.7L10.2 90c-.3 0-.6-.1-.9-.2-.3-.2-.2-.8-.2-.9l2.7-8c.2-.7-.1-1.4-.8-1.6-.7-.2-1.4.1-1.6.8l-2.5 7.4c-.3-.1-.7-.7-.9-1.1.2-1.2 1-4.9 1.5-7.1.2-.7-.3-1.4-1-1.5-.7-.2-1.4.3-1.5 1-.4 1.9-1 4.8-1.3 6.4-.2-.1-.3-.1-.4-.2-.2-.4-.3-.8-.3-1.4.2-9.1 3.5-9.1 4.6-9.1 1.5 0 3.2.7 4.6 1.2.2.1.5.2.7.3 2.4.9 5.1 2.5 5.9 4.4.3.7.3 1.5-.1 2.2-2.1 4.4-4.2 8.4-5.9 11.6-.8 1.2-1.4 1.7-1.6 1.8m5.8 3.8c-.3.2-.6.3-.8.4-.1.1-.3.1-.4.2-.2-.4-.6-1.3-1-2.1l-.7-1.7c.3-.4.6-.9.8-1.3.3-.6.6-1.2 1-1.8l1.6 3.6c.2.4.7 1.5.9 2-.1 0-.2.1-.3.1-.3.3-.7.4-1.1.6m1.9-5.6l-1.6-3.5c1.1-2.2 2.3-4.6 3.5-7.1.7-1.4.7-2.9.2-4.3-.4-.9-1.6-3.1-5.3-4.9C19.9 67.3 26.5 62 34 59.7l3.6 9.1c.2.4.5.7.9.8h.2c.3 0 .7-.1.9-.4l.8-.9c3.2 5.8 6 7.7 7.1 8.2.2.1.3.1.5.1s.4 0 .5-.1c1.1-.5 3.9-2.3 7.1-8.2l.8.9c.2.2.6.4.9.4h.2c.4-.1.8-.4.9-.8l3.6-9.1c13.9 4.2 22 17.1 25 30.1-1.5-1.2-2.8-1.2-3.6-1-6.4 1.5-11.5 3.6-11.7 3.7-.1.1-.2.1-.3.2l-1.6 1.4H18.9zm14.9 28.6h-3.9c-.5 0-.9-.2-1.2-.5-.3-.3-.4-.8-.3-1.3l2.3-12.2c.2-.8 1.1-1.5 2.1-1.5h2.8l-1.8 15.5zm2.5 0l1.8-15.6h21.5l1.8 15.6H36.3zm32.6-.5c-.3.3-.7.5-1.2.5H64l-1.8-15.6h2.7c1 0 1.9.7 2.1 1.5l2.3 12.2c0 .6-.1 1-.4 1.4m1.6-8.5l-1-5.6c-.2-.9-.7-1.7-1.4-2.4 1-.2 2.1-1 3.1-2.9.5-.9.8-1.8 1-2.4 1.6-.8 3.2-1.2 3.7-1.1 0 .3.1 1.2-1.1 4.3-.6 1.6-1.4 3.2-2.1 4.6-1 2.2-1.9 4-2.2 5.5m19-14.7c-.3 5-3.1 7.5-5.5 8.8 1.1-1.6 2.1-3.3 2.4-3.8.3-.6.1-1.4-.5-1.7-.6-.3-1.4-.1-1.7.5-1.6 3-3.2 5-4.2 5.9l3.8-7.6c.3-.6.1-1.4-.6-1.7-.6-.3-1.4-.1-1.7.6l-3.9 7.7c-.4.6-2.6 3.8-3.5 5.1-.2.4-.4.7-.6 1.1-.2.3-.5.9-.7 1.1 0-.2 0-.6.1-1.1.3-1.1 1-2.6 1.9-4.4.7-1.4 1.5-3.1 2.2-4.8 1.4-3.5 1.7-5.5.9-6.6-1.6-2.5-6.2-.3-7.5.5-.3.2-.5.4-.6.8-.7 2.4-1.8 3.8-2.4 4 .5-1.4.7-3.3.8-4.4l4.7-4.3c1-.4 5.6-2.3 11.1-3.5.5-.1 1.2.3 1.6.7 2.1 1.8 3.9 5.9 3.9 7.1"
                />
                <path
                  class="st0"
                  d="M59.1 20.9h-5.5c-.7 0-1.3.6-1.3 1.3 0 .7.6 1.3 1.3 1.3h5.5c.7 0 1.3-.6 1.3-1.3 0-.8-.6-1.3-1.3-1.3m-3.8 12.2c-.7 0-1.3.6-1.3 1.3 0 .7.6 1.3 1.3 1.3.7 0 1.3-.6 1.3-1.3 0-.7-.5-1.3-1.3-1.3M46 52h3.4c3.4 0 6-2.4 6.4-4.5.1-.7-.3-1.4-1-1.5-.7-.1-1.3.3-1.5 1-.1.3-.2.6-.5 1-.6.8-1.8 1.5-3.4 1.5H46c-.7 0-1.3.6-1.3 1.3 0 .6.6 1.2 1.3 1.2m0-8.6h4.5c.7 0 1.3-.6 1.3-1.3 0-.7-.6-1.3-1.3-1.3H46c-.7 0-1.3.6-1.3 1.3 0 .8.6 1.3 1.3 1.3m-6.3-9c0 .7.6 1.3 1.3 1.3.7 0 1.3-.6 1.3-1.3 0-.7-.6-1.3-1.3-1.3-.7 0-1.3.6-1.3 1.3m-7.3 78.7c-.7 0-1.4.5-1.5 1.1-.1.6.4 1.1 1.1 1.1.7 0 1.4-.5 1.5-1.1.1-.6-.4-1.1-1.1-1.1"
                />
                <path class="st1" d="M59.6 107.2l1.9 15.6H36.3l1.8-15.6z" />
                <path
                  d="M64.9 107.2c1 0 1.9.7 2.1 1.5l2.3 12.2c.1.5 0 1-.3 1.3-.3.3-.7.5-1.2.5H64l-1.8-15.6h2.7zm-29.3 0l-1.8 15.6h-3.9c-.5 0-.9-.2-1.2-.5-.3-.3-.4-.8-.3-1.3l2.3-12.2c.2-.8 1.1-1.5 2.1-1.5h2.8zm-2.1 7.1c.1-.6-.4-1.1-1.1-1.1-.7 0-1.4.5-1.5 1.1-.1.6.4 1.1 1.1 1.1.8 0 1.4-.5 1.5-1.1"
                  fill="#929497"
                />
                <path
                  class="st1"
                  d="M37.8 54.9c2.5 2.4 5.2 4 7.8 4.7l-6.3 6.5-2.9-7.1.1-.4v-.1l1.3-3.6zm20.9 0l1.3 4-2.9 7.2-6.3-6.5c2.7-.7 5.4-2.3 7.9-4.7"
                />
                <path
                  class="st3"
                  d="M27.6 34.3c-.2.1-.4.2-.6.2-.5.1-1.1-.1-1.6-.6-.6-.5-1-1.3-1.1-2.2-.2-1.7.6-3.3 1.8-3.4.3 0 .6 0 .8.1.1 2 .3 4 .7 5.9m42-5.9c.2-.1.5-.1.8-.1 1.2.2 2.1 1.7 1.8 3.4-.1.9-.5 1.7-1.1 2.2-.5.5-1.1.7-1.6.6-.2 0-.5-.1-.6-.2.3-1.9.6-3.9.7-5.9"
                />
                <path
                  class="st1"
                  d="M54 66.5c-1.5 2.9-3.7 6.2-5.8 7.5-2.1-1.3-4.3-4.6-5.8-7.5l5.8-6 5.8 6z"
                />
                <path
                  class="st4"
                  d="M48.2 76.7c.2 0 .4 0 .5-.1 1.1-.5 3.9-2.3 7.1-8.2l.8.9c.2.2.6.4.9.4h.2c.4-.1.8-.4.9-.8l3.6-9.1c13.7 4.1 21.8 17 24.8 30-1.5-1.2-2.8-1.2-3.6-1-6.4 1.5-11.5 3.6-11.7 3.7-.1.1-.2.1-.3.2l-1.6 1.4H18.9l-1.6-3.5c1.1-2.2 2.3-4.6 3.5-7.1.7-1.4.7-2.9.2-4.3-.4-.9-1.6-3.1-5.3-4.9 4.2-7.1 10.8-12.4 18.3-14.7l3.6 9.1c.2.4.5.7.9.8h.2c.3 0 .7-.1.9-.4l.8-.9c3.2 5.8 6 7.7 7.1 8.2.4.2.5.3.7.3"
                />
                <path
                  class="st3"
                  d="M73 114c.3-1.1 1-2.6 1.9-4.4.7-1.4 1.5-3.1 2.2-4.8 1.4-3.5 1.7-5.5.9-6.6-1.6-2.5-6.1-.3-7.5.5-.3.2-.5.4-.6.8-.7 2.4-1.8 3.8-2.4 4 .5-1.4.7-3.3.8-4.4l4.7-4.3c1-.4 5.6-2.3 11.1-3.5.5-.1 1.2.3 1.6.7 2.2 1.8 4 6 3.9 7.2-.3 5-3.1 7.5-5.5 8.8 1.1-1.6 2.1-3.3 2.4-3.8.3-.6.1-1.4-.5-1.7-.6-.3-1.4-.1-1.7.5-1.7 3-3.2 5-4.2 5.9l3.8-7.6c.3-.6.1-1.4-.6-1.7-.6-.3-1.4-.1-1.7.6l-3.9 7.7c-.4.6-2.6 3.8-3.5 5.1-.2.4-.4.7-.6 1.1-.2.3-.5.9-.7 1.1-.1-.3 0-.7.1-1.2M56.9 11.8c3.3 5.2 7.1 8.7 9.8 10.6.2 1.2.4 2.4.4 3.6v.5l-4.2 3.3c-.9-2.7-3.5-4.6-6.5-4.6-2.9 0-5.5 1.9-6.5 4.5h-3.4c-1-2.6-3.5-4.5-6.5-4.5s-5.6 1.9-6.5 4.6l-4.2-3.3v-1.6c6.6-.1 20.3-1.8 27.6-13.1m-3.3 11.6h5.5c.7 0 1.3-.6 1.3-1.3 0-.7-.6-1.3-1.3-1.3h-5.5c-.7 0-1.3.6-1.3 1.3.1.7.6 1.3 1.3 1.3"
                />
                <path
                  class="st5"
                  d="M60 5.5c5.3 3.5 8.9 9.1 9.6 15.7-2.6-1.7-7.5-5.5-11.2-12 .7-1.3 1.2-2.7 1.6-3.7"
                />
                <path
                  class="st3"
                  d="M54.1 34.4c0 .7.6 1.3 1.3 1.3.7 0 1.3-.6 1.3-1.3 0-.7-.6-1.3-1.3-1.3-.8 0-1.3.6-1.3 1.3m2.3 2.1c-2.4 0-4.4-2-4.4-4.4 0-2.4 2-4.4 4.4-4.4 2.4 0 4.4 2 4.4 4.4 0 2.4-2 4.4-4.4 4.4"
                />
                <path
                  class="st5"
                  d="M48.2 2c3.4 0 6.7.8 9.5 2.2-.4 1.1-1 2.8-1.9 4.4-.1.2-.2.3-.3.5-.1.1-.1.2-.2.3C48.5 21 34.4 22.3 28.5 22.3h-1.8C27.4 11 36.8 2 48.2 2"
                />
                <path
                  class="st3"
                  d="M63.2 32.8c-.3 3.5-3.2 6.2-6.8 6.2-3.8 0-6.9-3.1-6.9-6.8H47c0 3.8-3.1 6.8-6.9 6.8-3.6 0-6.5-2.8-6.9-6.3l-3.7-2.9c.2 1.9.5 3.8.9 5.7 2.8 12.7 10.9 21.8 17.8 21.8 4.1 0 8.8-3.3 12.5-8.8 2.5-3.8 4.3-8.2 5.4-13 .4-1.9.7-3.8.9-5.7l-3.8 3zM46 40.9h4.5c.7 0 1.3.6 1.3 1.3 0 .7-.6 1.3-1.3 1.3H46c-.7 0-1.3-.6-1.3-1.3 0-.7.6-1.3 1.3-1.3m9.8 6.5c-.4 2.2-3 4.5-6.4 4.5H46c-.7 0-1.3-.6-1.3-1.3 0-.7.6-1.3 1.3-1.3h3.3c1.6 0 2.8-.8 3.4-1.5.3-.3.5-.7.5-1 .1-.7.8-1.1 1.5-1 .8.3 1.2 1 1.1 1.6"
                />
                <path
                  class="st3"
                  d="M39.7 34.4c0 .7.6 1.3 1.3 1.3.7 0 1.3-.6 1.3-1.3 0-.7-.6-1.3-1.3-1.3-.7 0-1.3.6-1.3 1.3m.4 2.1c-2.4 0-4.4-2-4.4-4.4 0-2.4 2-4.4 4.4-4.4 2.4 0 4.4 2 4.4 4.4-.1 2.4-2 4.4-4.4 4.4M3.3 84.8c-.2-.2-.3-.6-.3-1.2.2-9.1 3.5-9.1 4.6-9.1 1.5 0 3.2.7 4.6 1.2.2.1.5.2.7.3 2.3.9 5.1 2.5 5.9 4.4.3.7.3 1.5-.1 2.2-2.1 4.4-4.2 8.4-5.9 11.6-.6 1.2-1.2 1.7-1.5 1.8-.2-.1-.5-.4 0-1.7.1-.4.3-.9.5-1.3 0-.1.1-.1.1-.2L16 82.6c.3-.6-.1-1.4-.7-1.6-.6-.3-1.4.1-1.6.7L10.2 90c-.3 0-.6-.1-.9-.2-.3-.2-.2-.8-.2-.9l2.7-8c.2-.7-.1-1.4-.8-1.6-.7-.2-1.4.1-1.6.8l-2.5 7.4c-.3-.1-.7-.7-.9-1.1.2-1.2 1-4.9 1.5-7.1.2-.7-.3-1.4-1-1.5-.7-.2-1.4.3-1.5 1-.4 1.9-1 4.8-1.3 6.4l-.4-.4"
                />
                <path
                  class="st5"
                  d="M16.2 100.3c-.1.1-.2.1-.4.2-.2-.4-.6-1.3-1-2.1l-.7-1.7c.3-.4.6-.9.8-1.3.3-.6.6-1.2 1-1.8l1.6 3.6c.2.4.7 1.5.9 2-.1 0-.2.1-.3.1-.3.1-.6.3-1.1.5-.3.2-.6.3-.8.5"
                />
                <path
                  class="st4"
                  d="M120 43.1h9.6c4.3 0 8 1.5 11.1 4.6 3.1 3.1 4.6 6.8 4.6 11.1s-1.5 8-4.6 11.1c-3.1 3.1-6.8 4.6-11.1 4.6h-7.2V89c0 .7-.2 1.2-.7 1.7-.5.5-1 .7-1.7.7s-1.2-.2-1.7-.7c-.5-.5-.7-1-.7-1.7V45.6c0-.7.2-1.2.7-1.7.4-.5 1-.8 1.7-.8m2.4 4.9v21.7h7.2c3 0 5.5-1.1 7.7-3.2 2.1-2.1 3.2-4.7 3.2-7.7s-1.1-5.5-3.2-7.7c-2.1-2.1-4.7-3.2-7.7-3.2h-7.2zm51 35.1c.7 0 1.2.2 1.7.7.5.5.7 1 .7 1.7s-.2 1.2-.7 1.7c-3.1 2.7-6.8 4.1-11 4.1-4.7 0-8.6-1.6-11.9-4.9-3.3-3.3-4.9-7.3-4.9-11.9 0-4.7 1.6-8.6 4.9-11.9 3.3-3.3 7.3-4.9 11.9-4.9 4.7 0 8.6 1.6 11.9 4.9 3.3 3.3 4.9 7.3 4.9 11.9 0 .7-.2 1.2-.7 1.7-.5.5-1 .7-1.7.7h-26.3c.4 2.3 1.5 4.3 3.3 6.1 2.4 2.3 5.2 3.5 8.5 3.5 3 0 5.6-1 7.8-2.9.5-.3 1-.5 1.6-.5m2.5-11c-.4-2.3-1.5-4.3-3.3-6.1-2.4-2.4-5.2-3.5-8.5-3.5s-6.2 1.2-8.5 3.5c-1.8 1.8-2.9 3.8-3.3 6.1h23.6zM262.2 60c0-.7.2-1.2.7-1.7.5-.5 1-.7 1.7-.7s1.2.2 1.7.7c.5.5.7 1 .7 1.7v2c3-2.9 6.6-4.4 10.8-4.4 4.3 0 8 1.5 11.1 4.6 3.1 3.1 4.6 6.8 4.6 11.1V89c0 .7-.2 1.2-.7 1.7-.5.5-1 .7-1.7.7s-1.2-.2-1.7-.7c-.5-.5-.7-1-.7-1.7V73.3c0-3-1.1-5.5-3.2-7.7-2.1-2.1-4.7-3.2-7.7-3.2s-5.5 1.1-7.7 3.2c-2.1 2.1-3.2 4.7-3.2 7.7V89c0 .7-.2 1.2-.7 1.7-.5.5-1 .7-1.7.7s-1.2-.2-1.7-.7c-.5-.5-.7-1-.7-1.7V60zm50.9 26.5c.7 0 1.2.2 1.7.7.5.5.7 1 .7 1.7s-.2 1.2-.7 1.7c-.5.5-1 .7-1.7.7-8 0-12-4-12-12V62.4h-2.4c-.7 0-1.2-.2-1.7-.7-.5-.5-.7-1-.7-1.7s.2-1.2.7-1.7c.5-.5 1-.7 1.7-.7h2.4v-12c0-.7.2-1.2.7-1.7.5-.5 1-.7 1.7-.7s1.2.2 1.7.7c.5.5.7 1 .7 1.7v12h4.8c.7 0 1.2.2 1.7.7.5.5.7 1 .7 1.7s-.2 1.2-.7 1.7c-.5.5-1 .7-1.7.7h-4.8v16.9c0 4.8 2.4 7.2 7.2 7.2"
                />
                <path
                  class="st5"
                  d="M326.8 87.7c0 1-.4 1.9-1.1 2.6-.7.7-1.6 1.1-2.6 1.1s-1.9-.4-2.6-1.1c-.7-.7-1.1-1.6-1.1-2.6s.4-1.9 1.1-2.6c.7-.7 1.6-1.1 2.6-1.1s1.9.4 2.6 1.1c.8.8 1.1 1.6 1.1 2.6"
                />
                <path
                  class="st4"
                  d="M332.3 60c0-.7.2-1.2.7-1.7.5-.5 1-.7 1.7-.7s1.2.2 1.7.7c.5.5.7 1 .7 1.7v2.7c3.4-3.4 7.4-5.1 12-5.1 2.4 0 4.5.4 6.5 1.2.4.1.7.4 1 .6.5.5.7 1.1.7 1.7 0 .7-.2 1.2-.7 1.7-.5.5-1 .7-1.7.7-.4 0-.7-.1-1.1-.2-1.4-.6-3-.9-4.7-.9-3.3 0-6.2 1.2-8.5 3.5s-3.5 5.2-3.5 8.5v14.5c0 .7-.2 1.2-.7 1.7-.5.5-1 .7-1.7.7s-1.2-.2-1.7-.7c-.5-.5-.7-1-.7-1.7V60zM392 88.9c0 .7-.2 1.2-.7 1.7-.5.5-1 .7-1.7.7s-1.2-.2-1.7-.7c-.5-.5-.7-1-.7-1.7v-2c-3 2.9-6.6 4.4-10.8 4.4-4.3 0-8-1.5-11.1-4.6-3.1-3.1-4.6-6.8-4.6-11.1V60c0-.7.2-1.2.7-1.7.5-.5 1-.7 1.7-.7s1.2.2 1.7.7c.5.5.7 1 .7 1.7v15.7c0 3 1.1 5.5 3.2 7.7 2.1 2.1 4.7 3.2 7.7 3.2s5.5-1.1 7.7-3.2c2.1-2.1 3.2-4.7 3.2-7.7V60c0-.7.2-1.2.7-1.7.5-.5 1-.7 1.7-.7s1.2.2 1.7.7c.5.5.7 1 .7 1.7v28.9zM218.4 45.5c0-.7-.2-1.2-.7-1.7-.5-.5-1-.7-1.7-.7s-1.2.2-1.7.7c-.5.5-.7 1-.7 1.7v17.2l-.1-.1c-3.3-3.3-7.3-4.9-11.9-4.9-4.7 0-8.6 1.6-11.9 4.9-3.3 3.3-4.9 7.3-4.9 11.9 0 4.7 1.6 8.6 4.9 11.9 3.3 3.3 7.3 4.9 11.9 4.9 4.7 0 8.6-1.6 11.9-4.9l.1-.1V89c0 .7.2 1.2.7 1.7.5.5 1 .7 1.7.7s1.2-.2 1.7-.7c.5-.5.7-1 .7-1.7V45.5zM210.1 83c-2.3 2.3-5.2 3.5-8.5 3.5s-6.2-1.2-8.5-3.5c-2.4-2.3-3.5-5.2-3.5-8.5s1.2-6.2 3.5-8.5 5.2-3.5 8.5-3.5 6.2 1.2 8.5 3.5 3.5 5.2 3.5 8.5-1.2 6.1-3.5 8.5m41.6-20.3l-.1-.1c-3.3-3.3-7.3-4.9-11.9-4.9-4.7 0-8.6 1.6-11.9 4.9-3.3 3.3-4.9 7.3-4.9 11.9 0 4.7 1.6 8.6 4.9 11.9 3.3 3.3 7.3 4.9 11.9 4.9 4.7 0 8.7-1.7 12-5.1v2.7c0 .7.2 1.2.7 1.7.5.5 1 .7 1.7.7s1.2-.2 1.7-.7c.5-.5.7-1 .7-1.7V74.5c0-4.6-1.6-8.6-4.8-11.8M248.2 83c-2.3 2.3-5.2 3.5-8.5 3.5s-6.2-1.2-8.5-3.5c-2.4-2.3-3.5-5.2-3.5-8.5s1.2-6.2 3.5-8.5c2.4-2.3 5.2-3.5 8.5-3.5s6.2 1.2 8.5 3.5 3.5 5.2 3.5 8.5-1.2 6.1-3.5 8.5"
                />
              </svg>